<svg width="1461.963" height="102.345" viewBox="0 0 1461.963 102.345" xmlns="http://www.w3.org/2000/svg"><g id="svgGroup" stroke-linecap="round" fill-rule="evenodd" font-size="9pt" stroke="#ff0000" stroke-width="0" fill="#000" style="stroke:#ff0000;stroke-width:0;fill:#000"><path d="M 15.381 17.042 L 9.619 18.214 A 6.341 6.341 0 0 1 9.057 18.19 Q 8.492 18.14 8.129 17.98 A 1.59 1.59 0 0 1 8.008 17.921 Q 7.575 17.685 7.491 17.037 A 2.62 2.62 0 0 1 7.471 16.7 A 3.135 3.135 0 0 1 7.821 15.356 Q 8.638 13.655 11.359 11.323 A 36.688 36.688 0 0 1 11.963 10.816 Q 15.343 8.042 20.658 5.614 A 69.861 69.861 0 0 1 24.365 4.053 A 52.21 52.21 0 0 1 30.421 2.09 Q 33.572 1.29 36.43 1.065 A 27.942 27.942 0 0 1 38.623 0.977 A 29.005 29.005 0 0 1 41.739 1.132 Q 45.691 1.561 47.681 3.175 Q 49.719 4.827 50.224 8.317 A 17.489 17.489 0 0 1 50.391 10.816 A 31.781 31.781 0 0 1 49.961 15.865 Q 49.555 18.383 48.766 21.155 A 59.326 59.326 0 0 1 48.145 23.194 A 165.839 165.839 0 0 1 46.278 28.606 Q 45.334 31.21 44.189 34.153 A 376.972 376.972 0 0 1 41.699 40.382 L 50.195 40.137 A 8.723 8.723 0 0 1 51.357 40.208 Q 52.628 40.38 53.183 40.971 A 1.639 1.639 0 0 1 53.613 42.139 Q 53.613 43.555 52.002 44.385 Q 47.803 46.534 38.77 47.608 Q 35.352 56.153 33.521 61.817 A 52.48 52.48 0 0 0 32.555 65.152 Q 31.689 68.595 31.689 71.046 L 31.836 74.268 A 2.389 2.389 0 0 1 30.941 76.149 A 4.143 4.143 0 0 1 30.176 76.661 Q 28.516 77.54 26.709 77.54 L 7.129 77.833 Q 1.996 77.833 0.673 76.168 A 2.167 2.167 0 0 1 0.537 75.977 Q 0.051 75.137 0.005 73.476 A 12.86 12.86 0 0 1 0 73.121 A 12.651 12.651 0 0 1 0.066 71.905 Q 0.233 70.183 0.83 67.603 Q 1.508 64.671 4.614 57.113 A 336.905 336.905 0 0 1 6.128 53.492 A 1500.435 1500.435 0 0 0 10.4 43.33 A 1191.59 1191.59 0 0 0 14.282 33.887 A 142.199 142.199 0 0 0 15.535 30.699 Q 17.457 25.614 17.861 23.073 A 7.611 7.611 0 0 0 17.969 21.9 A 20.85 20.85 0 0 0 17.934 20.644 Q 17.823 18.809 17.356 18.053 A 1.764 1.764 0 0 0 17.334 18.018 A 2.066 2.066 0 0 0 15.823 17.072 A 3.119 3.119 0 0 0 15.381 17.042 Z M 74.268 77.54 L 56.152 77.833 Q 51.019 77.833 49.696 76.168 A 2.167 2.167 0 0 1 49.561 75.977 A 3.751 3.751 0 0 1 49.16 74.937 Q 49.023 74.347 49.023 73.633 A 19.829 19.829 0 0 1 49.239 70.953 Q 49.837 66.661 52.087 59.142 A 201.081 201.081 0 0 1 52.588 57.496 A 1580.108 1580.108 0 0 1 56.305 45.624 A 1865.984 1865.984 0 0 1 60.327 33.106 Q 63.926 22.037 64.93 17.317 A 26.757 26.757 0 0 0 65.186 15.967 Q 65.773 12.275 65.856 9.303 A 34.305 34.305 0 0 0 65.869 8.35 A 11.426 11.426 0 0 1 65.948 6.948 Q 66.212 4.822 67.358 4.127 Q 68.848 3.223 73.169 3.223 A 106.184 106.184 0 0 0 76.661 3.162 Q 79.779 3.059 83.594 2.784 Q 88.859 2.405 91.127 2.353 A 28.437 28.437 0 0 1 91.772 2.344 A 5.946 5.946 0 0 1 92.937 2.451 Q 93.602 2.584 94.111 2.883 A 2.957 2.957 0 0 1 94.849 3.492 A 4.015 4.015 0 0 1 95.791 5.582 A 5.475 5.475 0 0 1 95.85 6.397 A 35.803 35.803 0 0 1 95.386 11.814 Q 94.202 19.482 89.99 30.958 A 3088.055 3088.055 0 0 0 85.107 44.434 Q 79.199 60.645 79.199 71.192 L 79.395 74.268 A 2.389 2.389 0 0 1 78.499 76.149 A 4.143 4.143 0 0 1 77.734 76.661 Q 76.074 77.54 74.268 77.54 Z" id="0" vector-effect="non-scaling-stroke"/><path d="M 113.867 26.71 L 135.938 26.173 Q 137.207 26.173 137.842 26.929 A 2.406 2.406 0 0 1 138.27 27.715 Q 138.389 28.068 138.44 28.501 A 5.845 5.845 0 0 1 138.477 29.175 A 3.847 3.847 0 0 1 138.365 29.976 Q 137.933 31.897 135.838 36.726 A 152.584 152.584 0 0 1 135.767 36.89 Q 133.057 43.116 130.322 50.123 A 76.345 76.345 0 0 0 129.126 53.39 Q 128.119 56.367 127.771 58.431 A 11.733 11.733 0 0 0 127.588 60.352 A 8.175 8.175 0 0 0 127.919 62.785 Q 129.048 66.407 134.033 66.407 A 28.272 28.272 0 0 0 137.467 66.186 A 38.027 38.027 0 0 0 140.771 65.626 Q 141.943 61.475 144.678 54.639 A 273.544 273.544 0 0 0 147.8 46.583 Q 150.812 38.4 152.201 32.63 A 52.767 52.767 0 0 0 153.027 28.565 A 2.066 2.066 0 0 1 153.385 27.612 Q 154.004 26.758 155.615 26.758 A 381.819 381.819 0 0 0 166.171 26.607 A 442.52 442.52 0 0 0 170.508 26.466 A 2123.057 2123.057 0 0 1 173.205 26.366 Q 177.586 26.207 179.027 26.179 A 26.441 26.441 0 0 1 179.517 26.173 A 3.489 3.489 0 0 1 180.26 26.247 Q 180.934 26.394 181.372 26.832 A 3.31 3.31 0 0 1 181.69 27.196 Q 182.031 27.655 182.031 28.077 A 7.058 7.058 0 0 1 181.886 29.352 Q 181.492 31.43 180.022 35.362 A 123.475 123.475 0 0 1 179.004 37.989 A 756.824 756.824 0 0 0 173.328 52.63 A 823.721 823.721 0 0 0 172.949 53.638 A 90.566 90.566 0 0 0 171.625 57.406 Q 170.508 60.844 170.123 63.224 A 14.036 14.036 0 0 0 169.922 65.43 A 6.084 6.084 0 0 0 170.069 66.831 Q 170.518 68.722 172.342 69.065 A 4.744 4.744 0 0 0 173.218 69.141 Q 176.514 69.141 182.349 67.359 A 110.746 110.746 0 0 0 185.046 66.5 Q 188.763 65.259 190.503 64.307 A 33.948 33.948 0 0 1 191.315 63.876 Q 192.529 63.254 193.148 63.093 A 1.48 1.48 0 0 1 193.506 63.038 Q 195.09 63.038 195.322 64.319 A 2.681 2.681 0 0 1 195.361 64.796 Q 195.361 66.553 192.749 68.14 Q 190.504 69.504 187.466 70.904 A 78.91 78.91 0 0 1 186.45 71.363 Q 183.628 72.615 179.932 73.968 A 165.836 165.836 0 0 1 177.588 74.805 A 74.07 74.07 0 0 1 153.32 78.907 Q 140.967 78.907 139.404 72.266 A 328.521 328.521 0 0 1 137.143 73.189 Q 134.366 74.311 132.298 75.077 A 103.214 103.214 0 0 1 131.641 75.318 Q 128.906 76.31 124.259 77.422 A 147.866 147.866 0 0 1 123.242 77.662 A 51.433 51.433 0 0 1 118.168 78.586 A 37.755 37.755 0 0 1 113.379 78.907 A 25.677 25.677 0 0 1 108.05 78.405 Q 100.189 76.729 99.174 69.465 A 16.459 16.459 0 0 1 99.023 67.188 Q 99.023 64.244 99.848 60.384 A 58.796 58.796 0 0 1 100.586 57.349 A 103.034 103.034 0 0 1 102.234 51.838 A 79.9 79.9 0 0 1 104.053 46.876 A 253.99 253.99 0 0 0 105.762 42.539 Q 109.082 33.861 109.082 31.422 Q 109.082 28.419 109.961 27.564 A 2.088 2.088 0 0 1 110.625 27.151 Q 111.646 26.729 113.683 26.71 A 20.753 20.753 0 0 1 113.867 26.71 Z" id="1" vector-effect="non-scaling-stroke"/><path d="M 249.707 25.147 L 272.07 26.173 Q 273.34 26.173 273.975 26.929 A 2.733 2.733 0 0 1 274.47 27.782 A 2.494 2.494 0 0 1 274.609 28.614 Q 274.609 32.119 271.753 39.709 A 108.133 108.133 0 0 1 271.655 39.967 A 2605.662 2605.662 0 0 1 265.747 55.396 A 117.9 117.9 0 0 0 264.596 58.492 Q 263.123 62.646 262.853 64.692 A 6.293 6.293 0 0 0 262.793 65.504 Q 262.793 67.871 263.49 68.595 A 1.182 1.182 0 0 0 263.55 68.653 Q 264.164 69.207 265.692 69.312 A 11.182 11.182 0 0 0 266.455 69.337 A 7.614 7.614 0 0 0 267.657 69.223 Q 269.714 68.887 273.46 67.56 A 92.308 92.308 0 0 0 274.292 67.261 A 183.735 183.735 0 0 0 276.833 66.315 Q 280.471 64.926 282.007 64.112 Q 284.033 63.038 285.107 63.038 Q 286.733 63.038 286.971 64.284 A 2.474 2.474 0 0 1 287.012 64.747 A 2.998 2.998 0 0 1 286.153 66.629 Q 283.555 69.672 273.106 73.92 A 143.231 143.231 0 0 1 272.363 74.219 A 50.314 50.314 0 0 1 267.66 75.845 Q 264.388 76.809 260.474 77.564 A 74.429 74.429 0 0 1 246.338 78.907 Q 234.375 78.907 231.934 71.29 Q 224.316 78.907 211.426 78.907 A 30.547 30.547 0 0 1 204.336 78.123 A 22.882 22.882 0 0 1 196.484 74.659 A 14.953 14.953 0 0 1 190.369 65.241 A 24.047 24.047 0 0 1 189.844 60.059 A 32.953 32.953 0 0 1 196.045 40.723 A 34.534 34.534 0 0 1 214.209 27.198 A 42.338 42.338 0 0 1 225.057 25.219 A 49.174 49.174 0 0 1 227.734 25.147 A 36.236 36.236 0 0 1 234.477 25.736 Q 240.837 26.942 244.971 30.616 A 2.492 2.492 0 0 0 244.992 30.448 Q 245.011 30.255 245.017 29.973 A 13.491 13.491 0 0 0 245.02 29.688 L 244.971 27.589 A 1.973 1.973 0 0 1 246.211 25.729 Q 247.131 25.277 248.733 25.176 A 15.552 15.552 0 0 1 249.707 25.147 Z M 224.316 66.505 A 12.107 12.107 0 0 0 232.499 63.205 Q 236.228 59.913 239.249 53.334 A 54.002 54.002 0 0 0 239.648 52.442 Q 242.186 46.666 242.45 42.851 A 12.456 12.456 0 0 0 242.48 41.993 Q 242.48 38.82 241.637 37.211 A 3.667 3.667 0 0 0 241.138 36.475 Q 239.991 35.183 236.958 34.994 A 17.624 17.624 0 0 0 235.864 34.962 A 10.033 10.033 0 0 0 232.32 35.652 Q 229.945 36.546 227.368 38.599 A 27.072 27.072 0 0 0 220.195 47.412 A 31.124 31.124 0 0 0 220.02 47.755 A 31.555 31.555 0 0 0 218.379 51.578 Q 217.667 53.623 217.399 55.493 A 15.475 15.475 0 0 0 217.236 57.691 Q 217.236 60.496 218.023 62.406 A 6.641 6.641 0 0 0 219.189 64.307 Q 221.143 66.505 224.316 66.505 Z" id="2" vector-effect="non-scaling-stroke"/><path d="M 305.273 77.393 L 280.127 77.93 A 1.074 1.074 0 0 1 279.707 77.838 Q 279.38 77.699 279.014 77.352 A 4.323 4.323 0 0 1 278.931 77.271 Q 278.271 76.612 278.271 75.709 A 2.544 2.544 0 0 1 278.344 75.209 Q 278.661 73.775 280.347 69.312 Q 282.422 63.819 284.937 57.496 A 120.867 120.867 0 0 0 287.838 49.318 A 150.299 150.299 0 0 0 289.526 43.58 Q 290.883 38.617 291.353 34.771 A 31.205 31.205 0 0 0 291.602 31.007 L 291.553 29.151 A 1.973 1.973 0 0 1 292.793 27.292 Q 293.713 26.839 295.315 26.739 A 15.552 15.552 0 0 1 296.289 26.71 L 319.434 26.173 Q 320.703 26.173 321.338 26.929 A 2.701 2.701 0 0 1 321.956 28.434 A 3.533 3.533 0 0 1 321.973 28.785 A 6.886 6.886 0 0 1 321.939 29.418 Q 321.838 30.494 321.436 32.325 A 131.797 131.797 0 0 1 331.338 28.617 Q 341.985 25.147 349.658 25.147 A 15.007 15.007 0 0 1 358.203 27.735 A 9.36 9.36 0 0 1 362.373 34.549 A 14.078 14.078 0 0 1 362.5 36.475 Q 362.5 41.901 358.795 50.354 A 84.177 84.177 0 0 1 357.959 52.198 A 186.774 186.774 0 0 0 356.416 55.581 Q 353.418 62.345 353.418 64.21 Q 353.418 68.358 356.433 68.717 A 5.062 5.062 0 0 0 357.031 68.751 A 9.952 9.952 0 0 0 358.382 68.642 Q 360.605 68.332 364.492 67.134 A 95.302 95.302 0 0 0 364.868 67.017 A 199.667 199.667 0 0 0 367.459 66.189 Q 369.945 65.374 371.666 64.721 A 41.639 41.639 0 0 0 373.071 64.161 Q 375.046 63.327 376.255 63.112 A 4.32 4.32 0 0 1 377.002 63.038 A 2.803 2.803 0 0 1 377.7 63.117 Q 378.597 63.348 378.768 64.256 A 2.519 2.519 0 0 1 378.809 64.722 A 3.102 3.102 0 0 1 378.077 66.71 Q 377.725 67.149 377.202 67.547 A 6.694 6.694 0 0 1 377.026 67.676 Q 375.416 68.823 372.432 70.269 A 71.097 71.097 0 0 1 371.777 70.582 A 85.943 85.943 0 0 1 368.94 71.853 Q 367.66 72.402 366.214 72.981 A 174.31 174.31 0 0 1 363.159 74.171 Q 358.171 76.062 351.673 77.426 A 107.895 107.895 0 0 1 351.245 77.515 A 68.082 68.082 0 0 1 342.632 78.742 A 57.371 57.371 0 0 1 338.33 78.907 A 47.82 47.82 0 0 1 333.587 78.693 Q 328.914 78.224 326.479 76.731 A 5.008 5.008 0 0 1 323.828 72.266 A 12.893 12.893 0 0 1 324.116 69.788 Q 325.017 65.291 328.735 56.91 A 146.725 146.725 0 0 0 330.647 52.416 Q 333.643 45.006 333.643 41.993 A 3.635 3.635 0 0 0 331.584 38.524 Q 330.04 37.718 327.338 37.653 A 20.073 20.073 0 0 0 326.855 37.647 A 28.885 28.885 0 0 0 324.005 37.797 Q 322.554 37.941 320.955 38.224 A 49.967 49.967 0 0 0 319.873 38.428 A 203.507 203.507 0 0 1 318.764 42.182 Q 316.924 48.219 313.608 58.175 A 1403.211 1403.211 0 0 1 313.257 59.229 A 9638.743 9638.743 0 0 0 312.132 62.601 Q 308.658 73.016 307.968 75.182 A 46.778 46.778 0 0 0 307.886 75.44 A 3.305 3.305 0 0 1 307.424 76.395 Q 306.817 77.237 305.703 77.369 A 3.664 3.664 0 0 1 305.273 77.393 Z" id="3" vector-effect="non-scaling-stroke"/><path d="M 442.383 78.467 L 441.064 82.813 A 18.686 18.686 0 0 1 436.308 90.721 A 21.868 21.868 0 0 1 436.084 90.943 A 28.476 28.476 0 0 1 427.832 96.583 A 47.111 47.111 0 0 1 422.518 98.593 A 62.616 62.616 0 0 1 417.188 100.001 Q 406.738 102.344 393.604 102.344 Q 370.703 102.344 370.703 93.555 Q 370.703 90.577 375.415 87.794 A 36.162 36.162 0 0 1 379.337 85.809 Q 381.568 84.835 384.214 83.972 A 74.498 74.498 0 0 1 387.598 82.96 A 217.893 217.893 0 0 1 415.771 77.247 Q 417.48 72.462 418.945 68.116 A 42.465 42.465 0 0 1 407.429 74.102 A 47.39 47.39 0 0 1 407.227 74.171 Q 401.495 76.11 396.714 76.338 A 26.384 26.384 0 0 1 395.459 76.368 Q 391.422 76.368 388.357 75.838 A 24.719 24.719 0 0 1 386.572 75.465 A 22.634 22.634 0 0 1 379.883 72.608 A 13.661 13.661 0 0 1 373.784 63.632 A 22.553 22.553 0 0 1 373.291 58.765 A 30.453 30.453 0 0 1 378.467 41.407 A 34.484 34.484 0 0 1 391.955 29.69 A 40.822 40.822 0 0 1 392.505 29.42 A 43.007 43.007 0 0 1 406.138 25.524 A 53.979 53.979 0 0 1 412.598 25.147 A 41.592 41.592 0 0 1 419.271 25.648 Q 422.841 26.229 425.709 27.485 A 19.254 19.254 0 0 1 429.98 30.03 Q 433.799 28.855 438.681 27.915 A 120.367 120.367 0 0 1 440.308 27.613 A 102.194 102.194 0 0 1 443.091 27.154 Q 446.105 26.702 448.282 26.596 A 25.874 25.874 0 0 1 449.536 26.563 A 11.532 11.532 0 0 1 452.255 26.869 A 8.697 8.697 0 0 1 455.2 28.175 A 7.348 7.348 0 0 1 456.321 29.118 Q 456.92 29.744 457.22 30.429 A 3.54 3.54 0 0 1 457.52 31.861 A 8.973 8.973 0 0 1 457.409 33.175 Q 457.12 35.101 456.079 38.135 Q 454.639 42.335 451.123 52.149 Q 447.607 61.964 444.434 71.876 Q 454.297 69.19 465.43 63.917 A 15.309 15.309 0 0 1 466.357 63.512 Q 467.558 63.038 468.311 63.038 A 3.964 3.964 0 0 1 469.095 63.108 Q 470.311 63.355 470.443 64.464 A 2.393 2.393 0 0 1 470.459 64.747 A 2.223 2.223 0 0 1 470.123 65.891 Q 469.69 66.621 468.701 67.335 Q 460.645 73.389 442.383 78.467 Z M 417.041 62.061 Q 420.85 58.985 423.706 52.491 Q 426.239 46.733 426.526 42.933 A 12.483 12.483 0 0 0 426.563 41.993 Q 426.563 38.82 425.719 37.211 A 3.667 3.667 0 0 0 425.22 36.475 Q 424.073 35.183 421.04 34.994 A 17.624 17.624 0 0 0 419.946 34.962 Q 416.939 34.962 413.474 36.948 A 25.027 25.027 0 0 0 411.304 38.355 Q 406.592 41.749 403.638 47.022 A 27.949 27.949 0 0 0 401.896 50.699 Q 401.119 52.734 400.84 54.62 A 14.135 14.135 0 0 0 400.684 56.69 Q 400.684 59.296 401.362 61.051 A 5.857 5.857 0 0 0 402.612 63.062 A 7.309 7.309 0 0 0 404.121 64.267 A 5.396 5.396 0 0 0 406.909 65.04 A 63.162 63.162 0 0 0 408.02 65.031 Q 409.196 65.01 409.996 64.942 A 12.952 12.952 0 0 0 410.474 64.893 Q 411.554 64.761 413.213 64.17 A 27.752 27.752 0 0 0 413.574 64.039 Q 415.479 63.331 417.041 62.061 Z M 411.475 89.307 L 413.77 82.813 A 118.634 118.634 0 0 0 406.912 84.093 Q 391.943 87.388 391.943 92.725 A 3.299 3.299 0 0 0 393.152 95.32 A 5.009 5.009 0 0 0 393.774 95.777 A 7.158 7.158 0 0 0 395.989 96.672 Q 397.084 96.925 398.389 96.925 A 21.556 21.556 0 0 0 403.107 96.448 Q 409.46 95.02 411.475 89.307 Z" id="4" vector-effect="non-scaling-stroke"/><path d="M 503.382 71.879 A 1.999 1.999 0 0 0 504.443 73.145 A 11.424 11.424 0 0 0 505.252 73.524 Q 508.159 74.759 514.703 76.072 A 178.714 178.714 0 0 0 519.312 76.929 A 142.827 142.827 0 0 0 530.231 78.413 A 105.706 105.706 0 0 0 540.186 78.907 A 160.693 160.693 0 0 0 544.489 78.851 Q 547.913 78.76 550.901 78.516 A 77.938 77.938 0 0 0 556.25 77.906 A 62.238 62.238 0 0 0 560.265 77.164 A 52.029 52.029 0 0 0 568.359 74.708 A 24.082 24.082 0 0 0 571.867 72.984 A 18.309 18.309 0 0 0 576.978 68.507 Q 580.078 64.503 580.078 58.521 Q 580.078 52.54 573.682 46.143 A 68.563 68.563 0 0 0 572.229 44.733 A 78.294 78.294 0 0 0 567.432 40.577 A 157.392 157.392 0 0 0 560.596 35.401 A 306.877 306.877 0 0 1 557.324 33.033 A 238.996 238.996 0 0 1 554.346 30.811 A 43.034 43.034 0 0 1 553.57 30.209 Q 552.437 29.308 551.492 28.425 A 24.342 24.342 0 0 1 549.731 26.612 A 14.466 14.466 0 0 1 549.176 25.935 Q 548.411 24.939 548.123 24.138 A 2.658 2.658 0 0 1 547.949 23.243 A 5.239 5.239 0 0 1 547.987 22.628 Q 548.115 21.544 548.682 20.24 Q 549.214 19.016 549.359 18.243 A 2.833 2.833 0 0 0 549.414 17.725 A 1.31 1.31 0 0 0 549.229 17.056 Q 548.979 16.626 548.389 16.26 A 2.836 2.836 0 0 0 548.173 16.14 Q 547.153 15.626 545.264 15.626 Q 537.646 15.626 530.469 17.969 A 37.908 37.908 0 0 0 527.817 18.917 A 30.931 30.931 0 0 0 523.315 21.143 Q 520.166 23.048 518.14 26.124 Q 516.113 29.2 516.113 33.008 A 10.791 10.791 0 0 0 517.095 37.399 Q 517.859 39.126 519.216 40.881 A 27.567 27.567 0 0 0 522.119 44.044 A 69.846 69.846 0 0 0 524.179 45.911 A 83.151 83.151 0 0 0 527.979 49.024 A 147.025 147.025 0 0 0 534.424 53.736 A 198.225 198.225 0 0 1 537.506 55.903 A 155.591 155.591 0 0 1 540.308 57.96 Q 541.805 59.086 542.985 60.173 A 22.842 22.842 0 0 1 544.629 61.842 A 12.314 12.314 0 0 1 544.768 62.002 Q 545.693 63.086 546.056 64.039 A 3.293 3.293 0 0 1 546.289 65.211 Q 546.289 66.7 544.727 68.165 Q 543.591 69.229 541.373 69.52 A 14.058 14.058 0 0 1 539.551 69.63 A 25.645 25.645 0 0 1 530.992 68.096 A 36.05 36.05 0 0 1 524.561 65.04 A 93.251 93.251 0 0 1 522.622 63.875 A 79.772 79.772 0 0 1 518.677 61.28 A 240.704 240.704 0 0 0 517.047 60.145 Q 515.326 58.956 513.916 58.033 A 21.743 21.743 0 0 0 513.783 57.946 Q 511.833 56.69 510.889 56.69 Q 509.5 56.69 507.273 60.703 A 45.951 45.951 0 0 0 506.201 62.769 Q 503.223 68.848 503.223 70.704 A 5.141 5.141 0 0 0 503.233 71.029 Q 503.262 71.5 503.382 71.879 Z M 585.303 25.342 A 39.126 39.126 0 0 0 569.458 13.99 A 53.111 53.111 0 0 0 549.756 10.255 Q 530.957 10.255 513.525 17.335 A 27.956 27.956 0 0 1 512.502 17.719 Q 510.953 18.262 510.205 18.262 Q 508.252 18.262 508.252 16.407 A 2.32 2.32 0 0 1 508.507 15.404 Q 509.068 14.237 510.864 12.794 A 22.112 22.112 0 0 1 512.931 11.336 Q 514.047 10.633 515.411 9.917 A 56.759 56.759 0 0 1 518.384 8.472 Q 523.291 6.251 529.492 4.346 A 100.113 100.113 0 0 1 553.362 0.18 A 116.493 116.493 0 0 1 559.863 0.001 Q 581.814 0.001 593.9 5.649 A 35.823 35.823 0 0 1 596.045 6.739 A 0.913 0.913 0 0 1 596.393 7.124 Q 596.706 7.722 596.655 9.058 Q 596.582 10.987 594.873 14.991 Q 593.164 18.995 590.747 22.413 Q 588.429 25.691 586.762 25.825 A 1.758 1.758 0 0 1 586.621 25.831 A 1.389 1.389 0 0 0 585.977 25.433 Q 585.755 25.365 585.486 25.348 A 2.92 2.92 0 0 0 585.303 25.342 Z" id="6" vector-effect="non-scaling-stroke"/><path d="M 615.82 4.639 L 638.184 4.493 A 2.904 2.904 0 0 1 639.042 4.614 A 2.323 2.323 0 0 1 640.015 5.201 A 2.078 2.078 0 0 1 640.473 5.925 Q 640.719 6.554 640.723 7.491 A 7.278 7.278 0 0 1 640.723 7.52 A 6.513 6.513 0 0 1 640.652 8.343 Q 640.401 10.2 639.257 14.836 A 273.801 273.801 0 0 1 638.721 16.968 A 229.557 229.557 0 0 1 634.229 32.325 A 109.762 109.762 0 0 1 642.306 29.259 A 137.265 137.265 0 0 1 648.389 27.369 Q 656.152 25.147 662.354 25.147 A 15.007 15.007 0 0 1 670.898 27.735 A 9.36 9.36 0 0 1 675.068 34.549 A 14.078 14.078 0 0 1 675.195 36.475 A 20.597 20.597 0 0 1 674.757 40.475 Q 673.785 45.349 670.654 52.149 A 164.423 164.423 0 0 0 669.111 55.597 Q 666.886 60.739 666.313 63.288 A 6.914 6.914 0 0 0 666.113 64.747 A 6.004 6.004 0 0 0 666.298 66.307 Q 666.845 68.335 669.013 68.68 A 6.099 6.099 0 0 0 669.971 68.751 A 28.433 28.433 0 0 0 676.754 67.873 Q 681.646 66.67 687.207 63.819 Q 688.672 63.038 689.6 63.038 A 3.275 3.275 0 0 1 690.355 63.117 Q 691.602 63.414 691.602 64.82 Q 691.602 66.602 689.38 67.994 A 38.712 38.712 0 0 1 687.552 69.065 Q 685.895 69.981 683.789 70.972 A 80.18 80.18 0 0 1 681.022 72.207 Q 679.769 72.74 678.349 73.304 A 166.795 166.795 0 0 1 675.342 74.464 A 71.191 71.191 0 0 1 651.678 78.89 A 80.85 80.85 0 0 1 650 78.907 A 41.06 41.06 0 0 1 645.506 78.683 Q 641.037 78.188 638.791 76.597 A 5.043 5.043 0 0 1 636.523 72.266 A 12.893 12.893 0 0 1 636.811 69.788 Q 637.712 65.291 641.431 56.91 A 146.725 146.725 0 0 0 643.343 52.416 Q 646.338 45.006 646.338 41.993 A 4.378 4.378 0 0 0 645.74 39.647 Q 644.665 37.908 641.659 37.488 A 15.302 15.302 0 0 0 639.551 37.354 Q 635.791 37.354 632.129 38.526 A 1043.613 1043.613 0 0 0 628.384 49.705 Q 623.193 65.516 620.557 75.587 Q 620.313 76.514 619.458 76.954 A 5.174 5.174 0 0 1 618.921 77.195 Q 618.395 77.393 617.969 77.393 L 592.822 77.93 A 1.074 1.074 0 0 1 592.402 77.838 Q 592.075 77.699 591.709 77.352 A 4.323 4.323 0 0 1 591.626 77.271 A 2.216 2.216 0 0 1 590.967 75.666 A 2.874 2.874 0 0 1 590.967 75.635 A 3.086 3.086 0 0 1 591.068 75.031 Q 591.448 73.43 593.241 68.299 A 434.585 434.585 0 0 1 594.116 65.821 A 2227.029 2227.029 0 0 1 597.424 56.605 A 2834.573 2834.573 0 0 1 601.05 46.632 A 298.061 298.061 0 0 0 607.983 25.098 A 147.081 147.081 0 0 0 609.361 19.865 Q 610.606 14.725 610.976 11.171 A 26.505 26.505 0 0 0 611.133 8.448 L 611.084 7.081 A 1.973 1.973 0 0 1 612.324 5.221 Q 613.244 4.769 614.846 4.668 A 15.552 15.552 0 0 1 615.82 4.639 Z" id="7" vector-effect="non-scaling-stroke"/><path d="M 765.597 63.111 A 2.669 2.669 0 0 0 764.941 63.038 Q 764.429 63.038 763.559 63.285 A 14.52 14.52 0 0 0 762.939 63.477 A 256.502 256.502 0 0 1 755.902 65.622 Q 745.034 68.755 737.207 69.817 A 54.249 54.249 0 0 1 729.98 70.362 A 36.371 36.371 0 0 1 728.558 70.335 A 31.524 31.524 0 0 1 724.512 69.923 A 25.849 25.849 0 0 1 722.837 69.558 Q 720.526 68.971 718.794 68.028 A 9.249 9.249 0 0 1 713.672 60.499 Q 719.815 60.046 725.244 59.255 A 116.023 116.023 0 0 0 734.814 57.471 A 55.287 55.287 0 0 0 737.189 56.861 Q 744.73 54.739 749.536 50.928 A 17.314 17.314 0 0 0 750.682 49.937 A 13.655 13.655 0 0 0 755.078 39.6 Q 755.078 35.488 752.923 32.448 A 13.68 13.68 0 0 0 749.292 29.005 Q 743.506 25.147 731.055 25.147 A 72.46 72.46 0 0 0 725.698 25.342 A 61.193 61.193 0 0 0 708.057 29.224 A 47.355 47.355 0 0 0 702.462 31.804 A 37.365 37.365 0 0 0 691.235 40.992 A 27.065 27.065 0 0 0 684.961 58.594 A 17.331 17.331 0 0 0 688.589 69.83 Q 693.852 76.361 706.751 78.193 A 80.232 80.232 0 0 0 717.969 78.907 A 110.67 110.67 0 0 0 731.504 78.109 A 84.775 84.775 0 0 0 749.17 74.073 A 235.197 235.197 0 0 0 750.307 73.672 Q 755.506 71.825 758.594 70.435 A 92.898 92.898 0 0 0 760.136 69.725 Q 761.37 69.142 762.437 68.589 A 46.567 46.567 0 0 0 764.331 67.554 A 10.067 10.067 0 0 0 764.495 67.457 Q 766.65 66.154 766.65 64.625 A 2.36 2.36 0 0 0 766.612 64.183 Q 766.449 63.327 765.597 63.111 Z M 713.721 55.128 A 38.485 38.485 0 0 0 720.032 52.814 Q 724.219 50.821 727.148 47.95 A 16.036 16.036 0 0 0 731.328 41.315 A 16.51 16.51 0 0 0 732.08 36.28 A 4.501 4.501 0 0 0 731.905 34.992 A 3.462 3.462 0 0 0 730.908 33.399 Q 729.999 32.565 728.368 32.379 A 8.807 8.807 0 0 0 727.368 32.325 A 6.228 6.228 0 0 0 725.028 32.806 Q 724.155 33.158 723.258 33.768 A 13.114 13.114 0 0 0 722.437 34.376 A 15.798 15.798 0 0 0 719.293 37.796 A 19.772 19.772 0 0 0 718.115 39.747 Q 714.404 46.632 713.721 55.128 Z" id="8" vector-effect="non-scaling-stroke"/><path d="M 784.912 77.393 L 759.766 77.93 A 1.074 1.074 0 0 1 759.346 77.838 Q 759.018 77.699 758.653 77.352 A 4.323 4.323 0 0 1 758.569 77.271 Q 757.91 76.612 757.91 75.709 A 2.544 2.544 0 0 1 757.983 75.209 Q 758.299 73.775 759.985 69.312 Q 762.061 63.819 764.575 57.496 A 120.867 120.867 0 0 0 767.477 49.318 A 150.299 150.299 0 0 0 769.165 43.58 Q 770.521 38.617 770.991 34.771 A 31.205 31.205 0 0 0 771.24 31.007 L 771.191 29.151 A 1.973 1.973 0 0 1 772.432 27.292 Q 773.352 26.839 774.954 26.739 A 15.552 15.552 0 0 1 775.928 26.71 L 799.072 26.173 Q 800.342 26.173 800.977 26.929 A 2.701 2.701 0 0 1 801.594 28.434 A 3.533 3.533 0 0 1 801.611 28.785 A 6.886 6.886 0 0 1 801.578 29.418 Q 801.477 30.494 801.074 32.325 A 131.797 131.797 0 0 1 810.977 28.617 Q 821.624 25.147 829.297 25.147 A 15.007 15.007 0 0 1 837.842 27.735 A 9.36 9.36 0 0 1 842.012 34.549 A 14.078 14.078 0 0 1 842.139 36.475 Q 842.139 41.901 838.433 50.354 A 84.177 84.177 0 0 1 837.598 52.198 A 186.774 186.774 0 0 0 836.054 55.581 Q 833.057 62.345 833.057 64.21 Q 833.057 68.358 836.071 68.717 A 5.062 5.062 0 0 0 836.67 68.751 A 9.952 9.952 0 0 0 838.02 68.642 Q 840.244 68.332 844.131 67.134 A 95.302 95.302 0 0 0 844.507 67.017 A 199.667 199.667 0 0 0 847.098 66.189 Q 849.584 65.374 851.304 64.721 A 41.639 41.639 0 0 0 852.71 64.161 Q 854.685 63.327 855.894 63.112 A 4.32 4.32 0 0 1 856.641 63.038 A 2.803 2.803 0 0 1 857.339 63.117 Q 858.236 63.348 858.407 64.256 A 2.519 2.519 0 0 1 858.447 64.722 A 3.102 3.102 0 0 1 857.716 66.71 Q 857.363 67.149 856.841 67.547 A 6.694 6.694 0 0 1 856.665 67.676 Q 855.055 68.823 852.071 70.269 A 71.097 71.097 0 0 1 851.416 70.582 A 85.943 85.943 0 0 1 848.579 71.853 Q 847.298 72.402 845.853 72.981 A 174.31 174.31 0 0 1 842.798 74.171 Q 837.81 76.062 831.311 77.426 A 107.895 107.895 0 0 1 830.884 77.515 A 68.082 68.082 0 0 1 822.271 78.742 A 57.371 57.371 0 0 1 817.969 78.907 A 47.82 47.82 0 0 1 813.225 78.693 Q 808.553 78.224 806.117 76.731 A 5.008 5.008 0 0 1 803.467 72.266 A 12.893 12.893 0 0 1 803.755 69.788 Q 804.655 65.291 808.374 56.91 A 146.725 146.725 0 0 0 810.286 52.416 Q 813.281 45.006 813.281 41.993 A 3.635 3.635 0 0 0 811.222 38.524 Q 809.678 37.718 806.977 37.653 A 20.073 20.073 0 0 0 806.494 37.647 A 28.885 28.885 0 0 0 803.644 37.797 Q 802.193 37.941 800.594 38.224 A 49.967 49.967 0 0 0 799.512 38.428 A 203.507 203.507 0 0 1 798.402 42.182 Q 796.563 48.219 793.247 58.175 A 1403.211 1403.211 0 0 1 792.896 59.229 A 9638.743 9638.743 0 0 0 791.77 62.601 Q 788.297 73.016 787.606 75.182 A 46.778 46.778 0 0 0 787.524 75.44 A 3.305 3.305 0 0 1 787.063 76.395 Q 786.456 77.237 785.342 77.369 A 3.664 3.664 0 0 1 784.912 77.393 Z" id="9" vector-effect="non-scaling-stroke"/><path d="M 922.021 78.467 L 920.703 82.813 A 18.686 18.686 0 0 1 915.946 90.721 A 21.868 21.868 0 0 1 915.723 90.943 A 28.476 28.476 0 0 1 907.471 96.583 A 47.111 47.111 0 0 1 902.156 98.593 A 62.616 62.616 0 0 1 896.826 100.001 Q 886.377 102.344 873.242 102.344 Q 850.342 102.344 850.342 93.555 Q 850.342 90.577 855.054 87.794 A 36.162 36.162 0 0 1 858.976 85.809 Q 861.206 84.835 863.853 83.972 A 74.498 74.498 0 0 1 867.236 82.96 A 217.893 217.893 0 0 1 895.41 77.247 Q 897.119 72.462 898.584 68.116 A 42.465 42.465 0 0 1 887.068 74.102 A 47.39 47.39 0 0 1 886.865 74.171 Q 881.134 76.11 876.353 76.338 A 26.384 26.384 0 0 1 875.098 76.368 Q 871.06 76.368 867.996 75.838 A 24.719 24.719 0 0 1 866.211 75.465 A 22.634 22.634 0 0 1 859.521 72.608 A 13.661 13.661 0 0 1 853.423 63.632 A 22.553 22.553 0 0 1 852.93 58.765 A 30.453 30.453 0 0 1 858.105 41.407 A 34.484 34.484 0 0 1 871.593 29.69 A 40.822 40.822 0 0 1 872.144 29.42 A 43.007 43.007 0 0 1 885.777 25.524 A 53.979 53.979 0 0 1 892.236 25.147 A 41.592 41.592 0 0 1 898.91 25.648 Q 902.48 26.229 905.348 27.485 A 19.254 19.254 0 0 1 909.619 30.03 Q 913.438 28.855 918.32 27.915 A 120.367 120.367 0 0 1 919.946 27.613 A 102.194 102.194 0 0 1 922.729 27.154 Q 925.744 26.702 927.92 26.596 A 25.874 25.874 0 0 1 929.175 26.563 A 11.532 11.532 0 0 1 931.894 26.869 A 8.697 8.697 0 0 1 934.839 28.175 A 7.348 7.348 0 0 1 935.96 29.118 Q 936.559 29.744 936.859 30.429 A 3.54 3.54 0 0 1 937.158 31.861 A 8.973 8.973 0 0 1 937.047 33.175 Q 936.759 35.101 935.718 38.135 Q 934.277 42.335 930.762 52.149 Q 927.246 61.964 924.072 71.876 Q 933.936 69.19 945.068 63.917 A 15.309 15.309 0 0 1 945.996 63.512 Q 947.196 63.038 947.949 63.038 A 3.964 3.964 0 0 1 948.733 63.108 Q 949.949 63.355 950.082 64.464 A 2.393 2.393 0 0 1 950.098 64.747 A 2.223 2.223 0 0 1 949.761 65.891 Q 949.329 66.621 948.34 67.335 Q 940.283 73.389 922.021 78.467 Z M 896.68 62.061 Q 900.488 58.985 903.345 52.491 Q 905.877 46.733 906.164 42.933 A 12.483 12.483 0 0 0 906.201 41.993 Q 906.201 38.82 905.358 37.211 A 3.667 3.667 0 0 0 904.858 36.475 Q 903.712 35.183 900.678 34.994 A 17.624 17.624 0 0 0 899.585 34.962 Q 896.577 34.962 893.113 36.948 A 25.027 25.027 0 0 0 890.942 38.355 Q 886.23 41.749 883.276 47.022 A 27.949 27.949 0 0 0 881.535 50.699 Q 880.758 52.734 880.479 54.62 A 14.135 14.135 0 0 0 880.322 56.69 Q 880.322 59.296 881 61.051 A 5.857 5.857 0 0 0 882.251 63.062 A 7.309 7.309 0 0 0 883.759 64.267 A 5.396 5.396 0 0 0 886.548 65.04 A 63.162 63.162 0 0 0 887.659 65.031 Q 888.835 65.01 889.635 64.942 A 12.952 12.952 0 0 0 890.112 64.893 Q 891.193 64.761 892.851 64.17 A 27.752 27.752 0 0 0 893.213 64.039 Q 895.117 63.331 896.68 62.061 Z M 891.113 89.307 L 893.408 82.813 A 118.634 118.634 0 0 0 886.55 84.093 Q 871.582 87.388 871.582 92.725 A 3.299 3.299 0 0 0 872.791 95.32 A 5.009 5.009 0 0 0 873.413 95.777 A 7.158 7.158 0 0 0 875.627 96.672 Q 876.723 96.925 878.027 96.925 A 21.556 21.556 0 0 0 882.745 96.448 Q 889.099 95.02 891.113 89.307 Z" id="10" vector-effect="non-scaling-stroke"/><path d="M 1019.336 39.014 A 2.425 2.425 0 0 0 1018.071 36.86 Q 1016.354 35.792 1012.305 35.792 A 33.223 33.223 0 0 0 1008.537 36.009 A 39.156 39.156 0 0 0 1001.587 37.476 A 74.951 74.951 0 0 0 1001.5 37.503 Q 996.012 39.178 991.895 41.358 Q 994.971 31.397 998.633 24.512 A 15.773 15.773 0 0 0 998.938 23.887 Q 999.341 23.008 999.483 22.363 A 2.974 2.974 0 0 0 999.561 21.729 A 1.533 1.533 0 0 0 999.049 20.583 Q 997.925 19.513 994.337 19.265 A 34.89 34.89 0 0 0 991.943 19.19 A 99.305 99.305 0 0 0 989.201 19.227 Q 978.456 19.524 972.852 22.217 Q 966.553 25.245 962.5 34.18 A 119.528 119.528 0 0 0 962.043 35.216 A 107.869 107.869 0 0 0 959.229 42.335 A 5696.501 5696.501 0 0 0 957.745 46.534 A 7432.569 7432.569 0 0 0 956.128 51.124 A 91.645 91.645 0 0 1 954.612 55.138 A 72.131 72.131 0 0 1 952.539 59.791 A 28.237 28.237 0 0 1 952.331 60.206 Q 951.178 62.462 949.945 63.834 A 7.95 7.95 0 0 1 948.511 65.113 A 5.606 5.606 0 0 1 948.062 65.387 Q 945.937 66.553 941.895 66.553 A 4.313 4.313 0 0 0 941.594 66.564 A 3.433 3.433 0 0 0 939.771 67.213 Q 938.867 67.872 938.721 68.995 Q 938.721 70.521 940.837 72.121 A 15.099 15.099 0 0 0 942.188 73.023 A 22.06 22.06 0 0 0 944.374 74.162 Q 945.901 74.857 947.747 75.463 A 49.622 49.622 0 0 0 951.465 76.514 A 53.258 53.258 0 0 0 964.142 78.032 A 57.735 57.735 0 0 0 972.949 77.344 A 21.32 21.32 0 0 0 973.568 77.232 Q 974.477 77.053 975.27 76.81 A 12.013 12.013 0 0 0 976.929 76.173 A 15.783 15.783 0 0 0 977.767 75.741 A 17.962 17.962 0 0 0 980.127 74.171 A 10.028 10.028 0 0 0 981.248 73.147 A 11.729 11.729 0 0 0 982.813 71.046 A 19.761 19.761 0 0 0 983.518 69.742 A 16.14 16.14 0 0 0 984.497 67.286 Q 985.059 65.43 989.941 47.95 A 19.067 19.067 0 0 1 992.205 48.223 A 22.124 22.124 0 0 1 996.582 49.512 Q 999.951 50.88 1002.124 52.369 A 84.333 84.333 0 0 0 1003.206 53.098 A 75.244 75.244 0 0 0 1006.396 55.103 Q 1008.496 56.348 1010.01 56.348 Q 1011.523 56.348 1013.086 54.053 A 19.78 19.78 0 0 0 1013.777 52.954 Q 1014.709 51.369 1015.869 48.894 A 108.652 108.652 0 0 0 1016.992 46.412 A 76.725 76.725 0 0 0 1017.325 45.642 Q 1019.336 40.914 1019.336 39.014 Z M 1027.197 25.635 A 51.577 51.577 0 0 0 1016.641 18.553 A 64.998 64.998 0 0 0 1009.937 15.601 Q 999.756 11.768 989.404 11.768 Q 983.203 11.768 974.463 13.404 A 118.238 118.238 0 0 0 969.906 14.343 Q 965.799 15.281 963.067 16.293 A 25.262 25.262 0 0 0 961.523 16.92 Q 957.324 18.8 956.006 18.8 A 2.438 2.438 0 0 1 955.378 18.726 Q 954.574 18.511 954.427 17.668 A 2.378 2.378 0 0 1 954.395 17.261 A 2.369 2.369 0 0 1 954.654 16.243 Q 955.229 15.041 957.08 13.526 A 22.122 22.122 0 0 1 959.19 12.016 Q 961.498 10.544 964.864 9.009 A 72.201 72.201 0 0 1 964.917 8.985 A 89.917 89.917 0 0 1 970.404 6.715 A 118.708 118.708 0 0 1 976.563 4.591 A 102.866 102.866 0 0 1 997.787 0.495 A 126.09 126.09 0 0 1 1009.082 0.001 Q 1017.415 0.001 1023.782 0.511 A 102.525 102.525 0 0 1 1028.369 0.977 A 86.734 86.734 0 0 1 1032.895 1.625 Q 1039.429 2.754 1041.641 4.499 A 2.506 2.506 0 0 1 1042.773 6.446 A 8.889 8.889 0 0 1 1042.596 7.612 Q 1042.195 9.516 1040.942 12.772 A 81.366 81.366 0 0 1 1040.82 13.087 Q 1039.014 17.725 1036.523 21.949 Q 1034.302 25.716 1032.78 26.512 A 2.077 2.077 0 0 1 1032.422 26.661 A 7.405 7.405 0 0 1 1031.22 26.894 A 9.938 9.938 0 0 1 1030.103 26.954 A 3.101 3.101 0 0 1 1029.043 26.753 Q 1028.186 26.441 1027.212 25.648 A 10.58 10.58 0 0 1 1027.197 25.635 Z" id="11" vector-effect="non-scaling-stroke"/><path d="M 1115.743 63.111 A 2.669 2.669 0 0 0 1115.088 63.038 Q 1114.575 63.038 1113.705 63.285 A 14.52 14.52 0 0 0 1113.086 63.477 A 256.502 256.502 0 0 1 1106.048 65.622 Q 1095.18 68.755 1087.353 69.817 A 54.249 54.249 0 0 1 1080.127 70.362 A 36.371 36.371 0 0 1 1078.705 70.335 A 31.524 31.524 0 0 1 1074.658 69.923 A 25.849 25.849 0 0 1 1072.983 69.558 Q 1070.673 68.971 1068.94 68.028 A 9.249 9.249 0 0 1 1063.818 60.499 Q 1069.962 60.046 1075.391 59.255 A 116.023 116.023 0 0 0 1084.961 57.471 A 55.287 55.287 0 0 0 1087.335 56.861 Q 1094.877 54.739 1099.683 50.928 A 17.314 17.314 0 0 0 1100.829 49.937 A 13.655 13.655 0 0 0 1105.225 39.6 Q 1105.225 35.488 1103.069 32.448 A 13.68 13.68 0 0 0 1099.438 29.005 Q 1093.652 25.147 1081.201 25.147 A 72.46 72.46 0 0 0 1075.845 25.342 A 61.193 61.193 0 0 0 1058.203 29.224 A 47.355 47.355 0 0 0 1052.608 31.804 A 37.365 37.365 0 0 0 1041.382 40.992 A 27.065 27.065 0 0 0 1035.107 58.594 A 17.331 17.331 0 0 0 1038.735 69.83 Q 1043.998 76.361 1056.898 78.193 A 80.232 80.232 0 0 0 1068.115 78.907 A 110.67 110.67 0 0 0 1081.65 78.109 A 84.775 84.775 0 0 0 1099.316 74.073 A 235.197 235.197 0 0 0 1100.454 73.672 Q 1105.653 71.825 1108.74 70.435 A 92.898 92.898 0 0 0 1110.282 69.725 Q 1111.517 69.142 1112.584 68.589 A 46.567 46.567 0 0 0 1114.478 67.554 A 10.067 10.067 0 0 0 1114.642 67.457 Q 1116.797 66.154 1116.797 64.625 A 2.36 2.36 0 0 0 1116.758 64.183 Q 1116.595 63.327 1115.743 63.111 Z M 1063.867 55.128 A 38.485 38.485 0 0 0 1070.179 52.814 Q 1074.366 50.821 1077.295 47.95 A 16.036 16.036 0 0 0 1081.474 41.315 A 16.51 16.51 0 0 0 1082.227 36.28 A 4.501 4.501 0 0 0 1082.051 34.992 A 3.462 3.462 0 0 0 1081.055 33.399 Q 1080.145 32.565 1078.515 32.379 A 8.807 8.807 0 0 0 1077.515 32.325 A 6.228 6.228 0 0 0 1075.175 32.806 Q 1074.302 33.158 1073.404 33.768 A 13.114 13.114 0 0 0 1072.583 34.376 A 15.798 15.798 0 0 0 1069.439 37.796 A 19.772 19.772 0 0 0 1068.262 39.747 Q 1064.551 46.632 1063.867 55.128 Z" id="12" vector-effect="non-scaling-stroke"/><path d="M 1135.059 77.393 L 1109.912 77.93 A 1.074 1.074 0 0 1 1109.492 77.838 Q 1109.165 77.699 1108.799 77.352 A 4.323 4.323 0 0 1 1108.716 77.271 Q 1108.057 76.612 1108.057 75.709 A 2.544 2.544 0 0 1 1108.13 75.209 Q 1108.446 73.775 1110.132 69.312 Q 1112.207 63.819 1114.722 57.496 A 120.867 120.867 0 0 0 1117.623 49.318 A 150.299 150.299 0 0 0 1119.312 43.58 Q 1120.668 38.617 1121.138 34.771 A 31.205 31.205 0 0 0 1121.387 31.007 L 1121.338 29.151 A 1.973 1.973 0 0 1 1122.578 27.292 Q 1123.498 26.839 1125.1 26.739 A 15.552 15.552 0 0 1 1126.074 26.71 L 1149.219 26.173 Q 1150.488 26.173 1151.123 26.929 A 2.701 2.701 0 0 1 1151.741 28.434 A 3.533 3.533 0 0 1 1151.758 28.785 A 6.886 6.886 0 0 1 1151.724 29.418 Q 1151.624 30.494 1151.221 32.325 A 131.797 131.797 0 0 1 1161.123 28.617 Q 1171.77 25.147 1179.443 25.147 A 15.007 15.007 0 0 1 1187.988 27.735 A 9.36 9.36 0 0 1 1192.158 34.549 A 14.078 14.078 0 0 1 1192.285 36.475 Q 1192.285 41.901 1188.58 50.354 A 84.177 84.177 0 0 1 1187.744 52.198 A 186.774 186.774 0 0 0 1186.201 55.581 Q 1183.203 62.345 1183.203 64.21 Q 1183.203 68.358 1186.218 68.717 A 5.062 5.062 0 0 0 1186.816 68.751 A 9.952 9.952 0 0 0 1188.167 68.642 Q 1190.39 68.332 1194.278 67.134 A 95.302 95.302 0 0 0 1194.653 67.017 A 199.667 199.667 0 0 0 1197.244 66.189 Q 1199.73 65.374 1201.451 64.721 A 41.639 41.639 0 0 0 1202.856 64.161 Q 1204.832 63.327 1206.04 63.112 A 4.32 4.32 0 0 1 1206.787 63.038 A 2.803 2.803 0 0 1 1207.486 63.117 Q 1208.382 63.348 1208.553 64.256 A 2.519 2.519 0 0 1 1208.594 64.722 A 3.102 3.102 0 0 1 1207.862 66.71 Q 1207.51 67.149 1206.987 67.547 A 6.694 6.694 0 0 1 1206.812 67.676 Q 1205.202 68.823 1202.217 70.269 A 71.097 71.097 0 0 1 1201.563 70.582 A 85.943 85.943 0 0 1 1198.726 71.853 Q 1197.445 72.402 1195.999 72.981 A 174.31 174.31 0 0 1 1192.944 74.171 Q 1187.956 76.062 1181.458 77.426 A 107.895 107.895 0 0 1 1181.03 77.515 A 68.082 68.082 0 0 1 1172.417 78.742 A 57.371 57.371 0 0 1 1168.115 78.907 A 47.82 47.82 0 0 1 1163.372 78.693 Q 1158.699 78.224 1156.264 76.731 A 5.008 5.008 0 0 1 1153.613 72.266 A 12.893 12.893 0 0 1 1153.901 69.788 Q 1154.802 65.291 1158.521 56.91 A 146.725 146.725 0 0 0 1160.433 52.416 Q 1163.428 45.006 1163.428 41.993 A 3.635 3.635 0 0 0 1161.369 38.524 Q 1159.825 37.718 1157.123 37.653 A 20.073 20.073 0 0 0 1156.641 37.647 A 28.885 28.885 0 0 0 1153.79 37.797 Q 1152.339 37.941 1150.74 38.224 A 49.967 49.967 0 0 0 1149.658 38.428 A 203.507 203.507 0 0 1 1148.549 42.182 Q 1146.709 48.219 1143.394 58.175 A 1403.211 1403.211 0 0 1 1143.042 59.229 A 9638.743 9638.743 0 0 0 1141.917 62.601 Q 1138.444 73.016 1137.753 75.182 A 46.778 46.778 0 0 0 1137.671 75.44 A 3.305 3.305 0 0 1 1137.21 76.395 Q 1136.602 77.237 1135.488 77.369 A 3.664 3.664 0 0 1 1135.059 77.393 Z" id="13" vector-effect="non-scaling-stroke"/><path d="M 1272.168 78.467 L 1270.85 82.813 A 18.686 18.686 0 0 1 1266.093 90.721 A 21.868 21.868 0 0 1 1265.869 90.943 A 28.476 28.476 0 0 1 1257.617 96.583 A 47.111 47.111 0 0 1 1252.303 98.593 A 62.616 62.616 0 0 1 1246.973 100.001 Q 1236.523 102.344 1223.389 102.344 Q 1200.488 102.344 1200.488 93.555 Q 1200.488 90.577 1205.2 87.794 A 36.162 36.162 0 0 1 1209.122 85.809 Q 1211.353 84.835 1213.999 83.972 A 74.498 74.498 0 0 1 1217.383 82.96 A 217.893 217.893 0 0 1 1245.557 77.247 Q 1247.266 72.462 1248.73 68.116 A 42.465 42.465 0 0 1 1237.214 74.102 A 47.39 47.39 0 0 1 1237.012 74.171 Q 1231.28 76.11 1226.5 76.338 A 26.384 26.384 0 0 1 1225.244 76.368 Q 1221.207 76.368 1218.142 75.838 A 24.719 24.719 0 0 1 1216.357 75.465 A 22.634 22.634 0 0 1 1209.668 72.608 A 13.661 13.661 0 0 1 1203.569 63.632 A 22.553 22.553 0 0 1 1203.076 58.765 A 30.453 30.453 0 0 1 1208.252 41.407 A 34.484 34.484 0 0 1 1221.74 29.69 A 40.822 40.822 0 0 1 1222.29 29.42 A 43.007 43.007 0 0 1 1235.923 25.524 A 53.979 53.979 0 0 1 1242.383 25.147 A 41.592 41.592 0 0 1 1249.056 25.648 Q 1252.626 26.229 1255.494 27.485 A 19.254 19.254 0 0 1 1259.766 30.03 Q 1263.584 28.855 1268.466 27.915 A 120.367 120.367 0 0 1 1270.093 27.613 A 102.194 102.194 0 0 1 1272.876 27.154 Q 1275.89 26.702 1278.067 26.596 A 25.874 25.874 0 0 1 1279.321 26.563 A 11.532 11.532 0 0 1 1282.04 26.869 A 8.697 8.697 0 0 1 1284.985 28.175 A 7.348 7.348 0 0 1 1286.107 29.118 Q 1286.706 29.744 1287.005 30.429 A 3.54 3.54 0 0 1 1287.305 31.861 A 8.973 8.973 0 0 1 1287.194 33.175 Q 1286.905 35.101 1285.864 38.135 Q 1284.424 42.335 1280.908 52.149 Q 1277.393 61.964 1274.219 71.876 Q 1284.082 69.19 1295.215 63.917 A 15.309 15.309 0 0 1 1296.142 63.512 Q 1297.343 63.038 1298.096 63.038 A 3.964 3.964 0 0 1 1298.88 63.108 Q 1300.096 63.355 1300.228 64.464 A 2.393 2.393 0 0 1 1300.244 64.747 A 2.223 2.223 0 0 1 1299.908 65.891 Q 1299.475 66.621 1298.486 67.335 Q 1290.43 73.389 1272.168 78.467 Z M 1246.826 62.061 Q 1250.635 58.985 1253.491 52.491 Q 1256.024 46.733 1256.311 42.933 A 12.483 12.483 0 0 0 1256.348 41.993 Q 1256.348 38.82 1255.505 37.211 A 3.667 3.667 0 0 0 1255.005 36.475 Q 1253.858 35.183 1250.825 34.994 A 17.624 17.624 0 0 0 1249.731 34.962 Q 1246.724 34.962 1243.259 36.948 A 25.027 25.027 0 0 0 1241.089 38.355 Q 1236.377 41.749 1233.423 47.022 A 27.949 27.949 0 0 0 1231.681 50.699 Q 1230.904 52.734 1230.625 54.62 A 14.135 14.135 0 0 0 1230.469 56.69 Q 1230.469 59.296 1231.147 61.051 A 5.857 5.857 0 0 0 1232.397 63.062 A 7.309 7.309 0 0 0 1233.906 64.267 A 5.396 5.396 0 0 0 1236.694 65.04 A 63.162 63.162 0 0 0 1237.805 65.031 Q 1238.982 65.01 1239.781 64.942 A 12.952 12.952 0 0 0 1240.259 64.893 Q 1241.339 64.761 1242.998 64.17 A 27.752 27.752 0 0 0 1243.359 64.039 Q 1245.264 63.331 1246.826 62.061 Z M 1241.26 89.307 L 1243.555 82.813 A 118.634 118.634 0 0 0 1236.697 84.093 Q 1221.729 87.388 1221.729 92.725 A 3.299 3.299 0 0 0 1222.937 95.32 A 5.009 5.009 0 0 0 1223.56 95.777 A 7.158 7.158 0 0 0 1225.774 96.672 Q 1226.869 96.925 1228.174 96.925 A 21.556 21.556 0 0 0 1232.892 96.448 Q 1239.246 95.02 1241.26 89.307 Z" id="14" vector-effect="non-scaling-stroke"/><path d="M 1360.156 53.272 L 1342.871 53.76 A 3.058 3.058 0 0 1 1341.818 53.594 Q 1340.474 53.102 1340.387 51.156 A 6.189 6.189 0 0 1 1340.381 50.88 Q 1340.381 47.036 1341.006 45.693 A 2.125 2.125 0 0 1 1341.162 45.411 A 6.354 6.354 0 0 1 1342.611 43.922 A 5.308 5.308 0 0 1 1345.19 42.945 A 38.673 38.673 0 0 1 1347.044 42.792 Q 1348.965 42.676 1351.465 42.676 L 1371.875 43.116 L 1389.16 42.628 A 3.058 3.058 0 0 1 1390.213 42.794 Q 1391.557 43.286 1391.644 45.232 A 6.189 6.189 0 0 1 1391.65 45.508 Q 1391.65 49.352 1391.025 50.695 A 2.125 2.125 0 0 1 1390.869 50.977 A 6.354 6.354 0 0 1 1389.42 52.466 A 5.308 5.308 0 0 1 1386.841 53.443 A 38.673 38.673 0 0 1 1384.987 53.596 Q 1383.066 53.712 1380.566 53.712 L 1360.156 53.272 Z" id="16" vector-effect="non-scaling-stroke"/><path d="M 1421.338 34.229 Q 1419.873 33.448 1419.873 31.373 Q 1419.873 29.496 1421.969 27.101 A 17.899 17.899 0 0 1 1422.437 26.588 A 15.004 15.004 0 0 1 1423.683 25.402 Q 1425.5 23.878 1427.002 23.878 A 1.423 1.423 0 0 1 1427.565 23.998 A 1.955 1.955 0 0 1 1427.881 24.171 A 1284.601 1284.601 0 0 0 1441.424 33.163 Q 1446.743 36.644 1451.524 39.682 A 621.574 621.574 0 0 0 1460.547 45.313 A 2.156 2.156 0 0 1 1461.349 46.203 Q 1461.963 47.37 1461.963 49.732 Q 1461.963 53.321 1456.934 55.86 A 512.813 512.813 0 0 0 1436.394 66.918 A 568.813 568.813 0 0 0 1433.398 68.629 Q 1422.896 74.67 1420.923 75.802 A 282.281 282.281 0 0 1 1420.532 76.026 Q 1419.759 76.468 1419.406 76.51 A 0.592 0.592 0 0 1 1419.336 76.514 A 1.473 1.473 0 0 1 1418.601 76.286 Q 1417.704 75.765 1416.555 74.049 A 20.629 20.629 0 0 1 1416.284 73.633 A 22.571 22.571 0 0 1 1415.494 72.298 Q 1414.803 71.025 1414.571 70.093 A 3.562 3.562 0 0 1 1414.453 69.239 A 6.367 6.367 0 0 1 1414.675 67.498 A 4.197 4.197 0 0 1 1417.041 64.747 A 604.967 604.967 0 0 0 1435.741 55.454 A 726.884 726.884 0 0 0 1447.51 49.219 A 651.143 651.143 0 0 0 1427.753 37.748 A 577.523 577.523 0 0 0 1421.338 34.229 Z" id="17" vector-effect="non-scaling-stroke"/></g></svg>